<svg xmlns="http://www.w3.org/2000/svg" enable-background="new 0 0 36 36" viewBox="0 0 36 36"><path fill="#EFEFEF" d="M34.904,20.355c-3.782-5.791-3.38-11.727-5.203-14.518c-1.823-2.791-7.256-7.603-20.093,0.782s-9.572,17.5-7.566,20.569C11.43,41.56,41.603,30.611,34.904,20.355z"/><rect width="2" height="1" x="13.071" y="3.451" fill="#A4AFC1" transform="rotate(-45.001 14.071 3.951)"/><rect width="2" height="1" x="9.005" y="7.517" fill="#A4AFC1" transform="rotate(-45.001 10.005 8.017)"/><rect width="1" height="2" x="9.505" y="2.774" fill="#A4AFC1" transform="rotate(-45.02 10.005 3.774)"/><path fill="#A4AFC1" d="M26.789,28.796c-0.827,0-1.5-0.673-1.5-1.5s0.673-1.5,1.5-1.5s1.5,0.673,1.5,1.5S27.616,28.796,26.789,28.796z M26.789,26.796c-0.275,0-0.5,0.224-0.5,0.5s0.225,0.5,0.5,0.5s0.5-0.224,0.5-0.5S27.064,26.796,26.789,26.796z"/><path fill="#F3F3F1" d="M19.014 25.341v2.448c0 .807.654 1.461 1.46 1.461s1.461-.654 1.461-1.461v-2.448H19.014zM14.124 25.341v2.448c0 .807.654 1.461 1.46 1.461s1.461-.654 1.461-1.461v-2.448H14.124zM25.789 23.387L25.789 23.387c-.807 0-1.461-.654-1.461-1.461v-5.873c0-.807.654-1.461 1.461-1.461h0c.807 0 1.461.654 1.461 1.461v5.873C27.25 22.733 26.596 23.387 25.789 23.387zM10.211 23.387L10.211 23.387c-.807 0-1.461-.654-1.461-1.461v-5.873c0-.807.654-1.461 1.461-1.461h0c.807 0 1.461.654 1.461 1.461v5.873C11.671 22.733 11.017 23.387 10.211 23.387z"/><path fill="#2FDF84" d="M11.671 14.593v8.748c0 1.105.895 2 2 2h8.658c1.105 0 2-.895 2-2v-8.748H11.671zM18 7.753c-3.495 0-6.329 2.844-6.329 6.351v.489h12.658v-.489C24.329 10.597 21.495 7.753 18 7.753z"/><path fill="#D5DBE1" d="M21.264 27.789v-2.448h-2.25v2.448c0 .807.654 1.461 1.46 1.461.456 0 .857-.213 1.125-.54C21.393 28.458 21.264 28.141 21.264 27.789zM16.374 27.789v-2.448h-2.25v2.448c0 .807.654 1.461 1.46 1.461.456 0 .857-.213 1.125-.54C16.503 28.458 16.374 28.141 16.374 27.789z"/><path fill="#00B871" d="M13.921 23.341v-8.748h-2.25v8.748c0 1.105.895 2 2 2h2.25C14.816 25.341 13.921 24.446 13.921 23.341zM19.125 7.859C18.759 7.793 18.385 7.753 18 7.753c-3.495 0-6.329 2.844-6.329 6.351v.489h2.25v-.489C13.921 10.983 16.167 8.392 19.125 7.859z"/><path d="M20.475 30c-1.219 0-2.211-.992-2.211-2.21v-2.448c0-.414.336-.75.75-.75h2.921c.414 0 .75.336.75.75v2.448C22.685 29.008 21.693 30 20.475 30zM19.764 26.091v1.698c0 .392.319.71.711.71s.71-.319.71-.71v-1.698H19.764zM15.584 30c-1.219 0-2.211-.992-2.211-2.21v-2.448c0-.414.336-.75.75-.75h2.922c.414 0 .75.336.75.75v2.448C17.795 29.008 16.803 30 15.584 30zM14.873 26.091v1.698c0 .392.319.71.711.71s.711-.319.711-.71v-1.698H14.873zM25.789 24.137c-1.219 0-2.21-.992-2.21-2.21v-5.873c0-1.219.991-2.21 2.21-2.21S28 14.835 28 16.054v5.873C28 23.146 27.008 24.137 25.789 24.137zM25.789 15.343c-.392 0-.71.319-.71.71v5.873c0 .392.318.71.71.71s.711-.319.711-.71v-5.873C26.5 15.662 26.181 15.343 25.789 15.343zM10.211 24.137C8.992 24.137 8 23.146 8 21.927v-5.873c0-1.219.992-2.21 2.211-2.21s2.21.992 2.21 2.21v5.873C12.421 23.146 11.43 24.137 10.211 24.137zM10.211 15.343c-.392 0-.711.319-.711.71v5.873c0 .392.319.71.711.71s.71-.319.71-.71v-5.873C10.921 15.662 10.603 15.343 10.211 15.343z"/><path d="M22.329,26.091h-8.658c-1.517,0-2.75-1.234-2.75-2.75v-8.748c0-0.414,0.336-0.75,0.75-0.75h12.658c0.414,0,0.75,0.336,0.75,0.75v8.748C25.079,24.857,23.846,26.091,22.329,26.091z M12.421,15.343v7.998c0,0.689,0.561,1.25,1.25,1.25h8.658c0.689,0,1.25-0.561,1.25-1.25v-7.998H12.421z"/><path d="M25.079,14.593h-1.5v-0.489c0-3.089-2.503-5.602-5.579-5.602s-5.579,2.513-5.579,5.602v0.489h-1.5v-0.489c0-3.916,3.176-7.102,7.079-7.102s7.079,3.186,7.079,7.102V14.593z"/><path d="M15.61 12.926c-.683 0-1.237-.556-1.237-1.238 0-.683.555-1.239 1.237-1.239.682 0 1.236.556 1.236 1.239C16.847 12.371 16.292 12.926 15.61 12.926zM15.61 11.426c-.146 0-.264.117-.264.262 0 .287.526.289.526 0C15.873 11.543 15.755 11.426 15.61 11.426zM20.421 12.926c-.682 0-1.236-.556-1.236-1.238 0-.683.555-1.239 1.236-1.239.683 0 1.237.556 1.237 1.239C21.658 12.371 21.104 12.926 20.421 12.926zM20.421 11.426c-.145 0-.263.117-.263.262 0 .289.526.287.526 0C20.685 11.543 20.566 11.426 20.421 11.426z"/><rect width="1.5" height="2.787" x="12.904" y="6.344" transform="rotate(-44.895 13.654 7.737)"/><rect width="2.787" height="1.5" x="20.988" y="6.987" transform="rotate(-45.106 22.381 7.737)"/></svg>