<svg xmlns="http://www.w3.org/2000/svg" enable-background="new 0 0 36 36" viewBox="0 0 36 36"><path fill="#EFEFEF" d="M11.532,34.802c6.645-1.919,12.203,0.206,15.405-0.719s9.396-4.708,5.142-19.44S18.155,0.363,14.632,1.38C-1.861,6.143-0.237,38.201,11.532,34.802z"/><rect width="2" height="1" x="16.168" y="2.533" fill="#A4AFC1" transform="rotate(-45.001 17.168 3.033)"/><rect width="2" height="1" x="12.102" y="6.599" fill="#A4AFC1" transform="rotate(-45.001 13.102 7.099)"/><rect width="1" height="2.001" x="12.602" y="1.856" fill="#A4AFC1" transform="rotate(-45.009 13.103 2.856)"/><path fill="#A4AFC1" d="M7.75,27.422c-0.827,0-1.5-0.673-1.5-1.5s0.673-1.5,1.5-1.5s1.5,0.673,1.5,1.5S8.577,27.422,7.75,27.422z M7.75,25.422c-0.275,0-0.5,0.224-0.5,0.5s0.225,0.5,0.5,0.5s0.5-0.224,0.5-0.5S8.025,25.422,7.75,25.422z"/><polygon fill="#2FDF84" points="9.531 14.56 23.646 11.815 16.736 6.75 16.736 9.072 8.857 12.28 6.75 15.066 6.75 21.482 9.531 22.284"/><polygon fill="#F3F3F1" points="15.135 26.38 23.857 29.25 29.25 24.649 29.25 10.887 23.647 11.815 23.647 23.973 9.531 22.284 15.135 29.25"/><polygon fill="#00B871" points="9 21.482 9 15.066 11.107 12.28 18.986 9.072 18.986 8.4 16.736 6.75 16.736 9.072 8.857 12.28 6.75 15.066 6.75 21.482 9.531 22.284 9.531 21.635"/><polygon fill="#D5DBE1" points="12.02 22.582 9.531 22.284 15.135 29.25 15.135 26.453"/><polygon fill="#D5DBE1" points="25.896 23.973 25.896 11.815 29.25 11.259 29.25 10.886 23.646 11.815 23.646 23.704"/><polygon fill="#D5DBE1" points="17.385 26.38 17.385 27.12 23.857 29.25 24.483 28.716"/><path d="M9.53,23.035c-0.069,0-0.14-0.01-0.208-0.029l-2.78-0.802C6.221,22.11,6,21.816,6,21.482v-6.416c0-0.163,0.054-0.322,0.151-0.452l2.106-2.786c0.082-0.108,0.19-0.191,0.315-0.243l7.413-3.018V6.75c0-0.283,0.159-0.541,0.411-0.669c0.248-0.127,0.554-0.104,0.782,0.064l6.909,5.065c0.24,0.176,0.354,0.478,0.288,0.769c-0.064,0.291-0.296,0.515-0.588,0.572L10.28,15.178v7.106c0,0.236-0.11,0.458-0.299,0.599C9.85,22.983,9.691,23.035,9.53,23.035z M7.5,20.918l1.28,0.369V14.56c0-0.359,0.255-0.667,0.606-0.736l12.433-2.417L17.486,8.23v0.842c0,0.305-0.185,0.58-0.467,0.695l-7.689,3.13L7.5,15.318V20.918z"/><path d="M15.135,30c-0.223,0-0.439-0.1-0.584-0.28l-5.604-6.965c-0.191-0.238-0.22-0.567-0.072-0.834c0.148-0.266,0.444-0.416,0.745-0.381l13.277,1.588V11.815c0-0.367,0.266-0.68,0.627-0.74l5.604-0.929c0.218-0.037,0.439,0.024,0.608,0.167C29.903,10.457,30,10.667,30,10.887v13.762c0,0.22-0.097,0.428-0.264,0.571l-5.394,4.602c-0.199,0.17-0.472,0.223-0.721,0.142l-7.737-2.546v1.834c0,0.318-0.201,0.602-0.501,0.708C15.303,29.986,15.218,30,15.135,30z M15.135,25.63c0.079,0,0.158,0.012,0.234,0.038l8.321,2.738l4.81-4.104V11.771l-4.104,0.68v11.522c0,0.214-0.092,0.418-0.252,0.561c-0.159,0.142-0.376,0.21-0.587,0.184l-12.29-1.47l3.117,3.874V26.38c0-0.241,0.115-0.467,0.311-0.607C14.824,25.679,14.979,25.63,15.135,25.63z"/></svg>