<svg xmlns="http://www.w3.org/2000/svg" enable-background="new 0 0 36 36" viewBox="0 0 36 36"><path fill="#EFEFEF" d="M34.904,20.355c-3.782-5.791-3.38-11.727-5.203-14.518c-1.823-2.791-7.256-7.603-20.093,0.782s-9.572,17.5-7.566,20.569C11.43,41.56,41.603,30.611,34.904,20.355z"/><rect width="1" height="2" x="27.298" y="8.859" fill="#A4AFC1" transform="rotate(-45.001 27.798 9.859)"/><rect width="1" height="2" x="23.232" y="4.793" fill="#A4AFC1" transform="rotate(-45.001 23.732 5.793)"/><rect width="2" height="1" x="26.975" y="5.293" fill="#A4AFC1" transform="rotate(-45.001 27.975 5.793)"/><path fill="#A4AFC1" d="M25.474,31.132c-0.827,0-1.5-0.673-1.5-1.5s0.673-1.5,1.5-1.5s1.5,0.673,1.5,1.5S26.301,31.132,25.474,31.132z M25.474,29.132c-0.275,0-0.5,0.225-0.5,0.5s0.225,0.5,0.5,0.5s0.5-0.225,0.5-0.5S25.749,29.132,25.474,29.132z"/><path fill="#2FDF84" d="M20.576,8.25c2.261,2.969,3.155,6.501,2.366,9.675c-0.052,0.255-0.157,0.563-0.263,0.819c-0.167-0.09-0.305-0.175-0.437-0.266l0.015,0.01c0,0-5.099-3.072-10.566-8.447c-0.158-0.153,2.944,4.299,6.414,7.832c-1.629-0.922-6.256-4.146-9.148-6.758c0.316,0.563,0.789,1.126,1.262,1.69c2.419,3.021,5.574,6.706,9.359,9.521c-2.681,1.589-6.414,1.69-10.2,0c-0.947-0.409-1.734-0.921-2.629-1.535c1.577,2.406,4.048,4.608,6.993,5.785c3.522,1.485,7.097,1.383,9.673,0h0.053c0.105-0.051,0.21-0.102,0.315-0.204c1.262-0.614,3.733-1.28,5.1,1.28c0.367,0.717,1.051-2.611-1.524-5.682h-0.001c0.053-0.102,0.053-0.205,0.105-0.307C28.726,16.85,25.729,11.219,20.576,8.25z"/><path fill="#00B871" d="M23.017 17.515c.933.636 1.492.974 1.492.974l-.015-.01c.132.091.27.175.437.266.105-.256.21-.563.262-.819.491-1.978.328-4.094-.41-6.127-1.137-1.378-2.56-2.6-4.206-3.549C22.741 11.093 23.635 14.448 23.017 17.515zM20.356 17.874c-.619-.63-1.224-1.289-1.803-1.946-1.901-1.424-4.338-3.406-6.86-5.886-.1-.097 1.102 1.644 2.874 3.829C16.895 15.65 19.28 17.265 20.356 17.874zM15.993 26.576c-2.097-.838-3.947-2.2-5.411-3.782-.4-.139-.801-.288-1.203-.468-.947-.409-1.734-.921-2.629-1.535 1.577 2.406 4.048 4.608 6.993 5.785 2.112.891 4.239 1.2 6.162 1.015C18.63 27.463 17.308 27.131 15.993 26.576zM19.579 22.327c-1.086.643-2.349 1.029-3.714 1.164 2.233.231 4.301-.179 5.964-1.164-2.583-1.92-4.863-4.243-6.825-6.487-1.961-1.377-4.313-3.159-6.046-4.724.316.563.79 1.126 1.262 1.689C12.638 15.827 15.793 19.512 19.579 22.327zM27.063 25.983c.679.235 1.324.736 1.821 1.668.199.388.485-.411.304-1.708C28.467 25.729 27.715 25.804 27.063 25.983z"/><path d="M28.992,28.5c-0.323,0-0.611-0.188-0.775-0.507c-1.055-1.977-2.933-1.492-4.017-0.989c-0.154,0.126-0.3,0.197-0.402,0.247c-0.052,0.024-0.105,0.044-0.161,0.057c-2.848,1.468-6.643,1.453-10.185-0.04c-2.884-1.152-5.56-3.364-7.329-6.064c-0.196-0.3-0.153-0.696,0.103-0.947c0.257-0.251,0.654-0.285,0.949-0.082c0.795,0.546,1.584,1.068,2.502,1.465c3.038,1.354,6.064,1.538,8.497,0.55c-3.447-2.766-6.35-6.18-8.539-8.914c-0.478-0.567-0.981-1.167-1.331-1.792c-0.18-0.32-0.101-0.724,0.187-0.952c0.289-0.229,0.697-0.218,0.971,0.029c1.214,1.097,2.735,2.3,4.205,3.39c-0.233-0.292-0.45-0.567-0.647-0.82c-2.396-3.083-2.355-3.124-1.864-3.619c0.29-0.292,0.766-0.291,1.06-0.007c4.476,4.4,8.744,7.266,10.036,8.095c0.658-2.911-0.166-6.13-2.271-8.894c-0.217-0.284-0.202-0.682,0.033-0.949c0.235-0.27,0.629-0.335,0.938-0.154c5.513,3.177,8.556,9.15,7.247,14.217c1.913,2.499,2.006,5.224,1.605,6.108c-0.228,0.506-0.629,0.57-0.791,0.574C29.006,28.5,28.999,28.5,28.992,28.5z M29.54,27.287c0.002,0.003,0.004,0.007,0.006,0.011C29.544,27.294,29.542,27.29,29.54,27.287z M10.017,23.399c1.21,1.056,2.578,1.91,4.005,2.48c3.199,1.348,6.574,1.359,9.04,0.035c0.059-0.031,0.122-0.055,0.187-0.07c0.005-0.003,0.01-0.007,0.014-0.011c0.057-0.056,0.123-0.102,0.194-0.137c1.562-0.758,3.516-0.983,4.977,0.208c-0.158-0.938-0.603-2.209-1.647-3.455c-0.192-0.23-0.229-0.554-0.093-0.822c0.008-0.052,0.025-0.126,0.061-0.212c0.886-3.481-0.63-7.48-3.722-10.41c0.971,2.345,1.208,4.812,0.639,7.101c-0.068,0.34-0.216,0.727-0.297,0.924s-0.242,0.35-0.443,0.421c-0.2,0.071-0.421,0.053-0.61-0.049c-0.178-0.098-0.328-0.188-0.471-0.285c-0.246-0.149-2.032-1.249-4.542-3.188c0.434,0.479,0.88,0.957,1.335,1.42c0.262,0.267,0.287,0.686,0.06,0.982c-0.229,0.296-0.64,0.38-0.964,0.195c-0.843-0.476-2.3-1.44-3.905-2.596c1.809,2.019,3.893,4.083,6.194,5.795c0.202,0.149,0.314,0.391,0.302,0.641c-0.014,0.251-0.151,0.479-0.367,0.606C17.205,24.606,13.626,24.75,10.017,23.399z"/></svg>