<svg xmlns="http://www.w3.org/2000/svg" enable-background="new 0 0 36 36" viewBox="0 0 36 36"><path fill="#EFEFEF" d="M26.982,3.914C20.066,4.043,15.25,0.549,11.917,0.612S1.621,2.721,1.908,18.052s9.744,17.404,13.41,17.336C32.482,35.067,39.229,3.685,26.982,3.914z"/><rect width="1" height="2" x="3.5" y="14.125" fill="#A4AFC1"/><rect width="1" height="2" x="3.5" y="19.875" fill="#A4AFC1"/><rect width="2" height="1" y="17.375" fill="#A4AFC1"/><path fill="#A4AFC1" d="M30.25,12.45c-0.827,0-1.5-0.673-1.5-1.5s0.673-1.5,1.5-1.5s1.5,0.673,1.5,1.5S31.077,12.45,30.25,12.45z M30.25,10.45c-0.275,0-0.5,0.225-0.5,0.5s0.225,0.5,0.5,0.5s0.5-0.225,0.5-0.5S30.525,10.45,30.25,10.45z"/><polygon fill="#F3F3F1" points="26.803 13.957 26.793 13.94 25.907 13.94 26.498 13.236 24 9.002 12 9 6.75 17.981 12 27 23.997 27 25.998 23.561 26.541 22.739 26.533 22.739 26.541 22.726 25.954 22.035 26.793 22.035 26.798 22.026 26.806 22.035 29.25 17.994 26.806 13.952"/><polygon fill="#2FDF84" points="22.819 18.337 20.571 22.034 20.597 22.034 21.087 22.737 15.257 22.737 12.454 17.979 15.287 13.232 15.288 13.234 21.091 13.234 20.595 13.938 20.572 13.938 22.82 17.634 23.641 17.634 23.381 17.936 23.716 18.337"/><polygon fill="#D5DBE1" points="14.25 9 12 9 6.75 17.98 12 27 14.25 27 9 17.98"/><polygon fill="#00B871" points="17.536 13.234 15.288 13.234 15.287 13.232 12.454 17.979 15.257 22.737 17.507 22.737 14.704 17.979"/><path d="M23.997,27.75H12c-0.267,0-0.514-0.142-0.648-0.373l-5.25-9.02c-0.136-0.233-0.136-0.522,0.001-0.756l5.25-8.98C11.487,8.392,11.733,8.25,12,8.25l0,0l12,0.002c0.266,0,0.511,0.141,0.646,0.369l2.498,4.234c0.088,0.148,0.12,0.319,0.098,0.482c0.031,0.023,0.061,0.05,0.089,0.078c0.045,0.043,0.084,0.093,0.117,0.148l2.444,4.042c0.145,0.238,0.145,0.537,0,0.775l-2.444,4.041c-0.045,0.074-0.101,0.139-0.165,0.191c0.01,0.065,0.011,0.133,0.003,0.198c-0.011,0.119-0.051,0.236-0.119,0.34l-0.542,0.821l-1.979,3.403C24.511,27.608,24.264,27.75,23.997,27.75z M12.432,26.25h11.134l2.044-3.461l-0.228-0.269c-0.189-0.223-0.232-0.535-0.109-0.8c0.123-0.266,0.389-0.436,0.681-0.436h0.43l1.99-3.291l-1.998-3.305h-0.469c-0.292,0-0.557-0.169-0.68-0.434s-0.082-0.576,0.105-0.8l0.25-0.296l-2.011-3.408L12.431,9.75l-4.812,8.231L12.432,26.25z"/><path d="M21.087,23.487h-5.83c-0.266,0-0.512-0.141-0.646-0.369l-2.803-4.759c-0.139-0.236-0.138-0.53,0.003-0.766l2.833-4.746c0.14-0.233,0.382-0.396,0.672-0.364c0.009,0,0.017,0,0.025,0.001h5.75c0.28,0,0.537,0.156,0.666,0.405c0.129,0.248,0.108,0.548-0.053,0.777l-0.226,0.318l1.764,2.899h0.398c0.293,0,0.56,0.171,0.682,0.438c0.088,0.19,0.09,0.405,0.014,0.593c0.147,0.218,0.172,0.498,0.06,0.739c-0.123,0.264-0.389,0.433-0.68,0.433h-0.475l-1.764,2.899l0.225,0.322c0.16,0.229,0.179,0.528,0.05,0.776C21.622,23.332,21.366,23.487,21.087,23.487z M15.686,21.987h4.143c0.005-0.12,0.038-0.238,0.103-0.344l2.225-3.658l-2.224-3.658c-0.064-0.105-0.101-0.224-0.107-0.343h-4.112l-2.386,3.997L15.686,21.987z"/></svg>